<?xml version="1.0" encoding="utf-8"?>
<!DOCTYPE svg PUBLIC "-//W3C//DTD SVG 1.0//EN" "http://www.w3.org/TR/2001/REC-SVG-20010904/DTD/svg10.dtd">
<svg version="1.0" xmlns="http://www.w3.org/2000/svg" width="500px" height="200px" viewBox="0 0 500 200" preserveAspectRatio="xMidYMid meet">
 <g fill="none" stroke="#3b3b3b" stroke-width="1">
  <path d="M0 100 l0 -100 250 0 250 0 0 100 0 100 -250 0 -250 0 0 -100z m332.5 24.5 l0 -10 -82.7 -0.3 -82.8 -0.2 0 9.8 c0 5.4 0.3 10.2 0.7 10.5 0.3 0.4 37.6 0.6 82.7 0.5 l82.1 -0.3 0 -10z m-268 5.7 c3.4 -2.3 5.1 -5 11.4 -17.4 7.3 -14.8 7.3 -14.8 11.2 -14.8 3.2 0 4 0.4 4.5 2.4 0.5 1.9 1.3 2.5 4.5 2.8 2.2 0.2 4.4 -0.1 4.8 -0.7 0.5 -0.5 4.1 -7.5 8 -15.3 6.2 -12.5 7 -14.6 5.7 -15.5 -0.9 -0.7 -3.4 -5.2 -5.7 -10.1 -6.8 -14.5 -10.3 -19.9 -14.7 -22.4 -4.8 -2.7 -7.5 -3 -12.4 -1.3 -5.5 1.8 -9.7 7.4 -16.3 21.6 -3.2 7 -6.4 12.5 -7.1 12.5 -0.8 0 -1.4 1.1 -1.4 2.5 0 3.4 -13.4 30.1 -15.5 30.9 -0.9 0.3 -3.2 0.6 -5.1 0.6 -1.9 0 -3.4 0.5 -3.4 1 0 2.3 9 18.7 11.7 21.2 6.5 6.2 12.6 6.8 19.8 2z m340.3 -45.9 c-0.3 -45 -0.3 -45.2 -0.5 -10.5 l-0.3 35.2 -15.8 0.2 -15.7 0.2 15.8 0.3 15.7 0.4 0 9.9 c0 5.5 0.2 10 0.5 10 0.3 0 0.4 -20.6 0.3 -45.7z m33.9 18.4 c-0.1 -4.5 -0.3 -0.5 -0.3 8.8 0 9.4 0.2 13 0.3 8.2 0.2 -4.8 0.2 -12.5 0 -17z m-67 -29.4 c-0.1 -6.5 -0.3 -1.2 -0.3 11.7 0 12.9 0.2 18.2 0.3 11.8 0.2 -6.5 0.2 -17.1 0 -23.5z m-173.9 10 l0.2 -21.3 -11.5 0 -11.5 0 0 20.8 c0 11.5 0.3 21.2 0.7 21.6 0.4 0.3 5.4 0.5 11.2 0.4 l10.6 -0.3 0.3 -21.2z m65.3 17.9 c2.9 -3.2 2.9 -3.4 2.9 -15.2 l0 -12 -11.5 0 c-11.5 0 -11.5 0 -11.5 6 0 6 0 6 -5.5 6 -5.5 0 -5.5 0 -5.5 -11 l0 -11 17 0 17 0 0 -9.5 0 -9.5 -17 0 c-17 0 -17 0 -17 -4.5 0 -4.5 0 -4.5 -11.5 -4.5 l-11.5 0 0 31.3 c0 34.5 0.1 34.7 6.5 36.7 1.7 0.5 12.4 0.8 23.8 0.7 20.9 -0.2 20.9 -0.2 23.8 -3.5z m69.4 -4.7 l0 -8 -16.5 -0.5 c-16.5 -0.5 -16.5 -0.5 -16.8 -3.8 -0.6 -5.9 0.3 -6.2 18 -6.2 l15.9 0 -0.3 -7.7 -0.3 -7.8 -16.5 -0.5 c-16.5 -0.5 -16.5 -0.5 -16.8 -4 -0.6 -5.5 1 -6 18.5 -6 l15.4 0 -0.3 -7.7 -0.3 -7.8 -25.8 0 c-33.9 0 -30.7 -3.6 -30.7 33.6 0 18.1 0.4 28.7 1.1 30 2.3 4.3 5.9 4.9 31.4 4.6 l24 -0.2 0 -8z m106.2 -45.2 c-0.1 -5.4 -0.3 -1.2 -0.3 9.2 0 10.5 0.2 14.9 0.3 9.8 0.2 -5.1 0.2 -13.6 0 -19z m-240.7 -7.3 c0 -8 0 -8 -11.5 -8 -11.5 0 -11.5 0 -11.5 8 0 8 0 8 11.5 8 11.5 0 11.5 0 11.5 -8z"/>
 </g>
 <g fill="#ffffff" stroke="#c4c4c4" stroke-width="1">
  <path d="M457.6 181.4 c-0.3 -0.8 0.1 -2.8 0.9 -4.5 1.5 -2.8 1.4 -3.3 -2.4 -12.1 -2.2 -5.1 -3.6 -9.7 -3.1 -10.1 1.9 -2.1 4.3 0.1 6.7 6.1 1.4 3.4 2.8 6.2 3.2 6.2 0.3 0 1.8 -2.8 3.2 -6.3 1.9 -4.6 3.1 -6.3 4.7 -6.5 1.4 -0.2 2.2 0.2 2.2 1.1 0 1.3 -9.6 23.8 -11.3 26.5 -1.1 1.7 -3.4 1.5 -4.1 -0.4z"/>
  <path d="M390.5 173.8 c-0.3 -0.8 -0.4 -7.5 -0.3 -14.9 0.3 -13.4 0.3 -13.4 7.8 -13.7 4.1 -0.2 8.5 0 9.7 0.3 5.5 1.3 7.4 10.8 3.1 15.1 -1.7 1.8 -3.9 2.5 -8.5 3 -6.2 0.7 -6.2 0.7 -6.5 5.8 -0.3 4.4 -0.6 5.1 -2.6 5.4 -1.2 0.2 -2.4 -0.3 -2.7 -1z m16.3 -16 c1.9 -1.9 1.5 -6.6 -0.7 -7.8 -1.1 -0.5 -3.8 -1 -6 -1 -4.1 0 -4.1 0 -4.1 5 0 5 0 5 4.8 5 2.6 0 5.3 -0.5 6 -1.2z"/>
  <path d="M420.3 174.2 c-2.3 -1.5 -3.3 -6.5 -3.3 -17.1 0 -8.4 0.3 -11.1 1.5 -12.1 1.2 -1 1.8 -1 3 0 1.2 1 1.5 3.8 1.5 13.1 0 11.8 0 11.9 2.5 12.5 1.6 0.4 2.5 1.3 2.5 2.5 0 1.5 -0.7 1.9 -3.2 1.9 -1.8 0 -3.8 -0.4 -4.5 -0.8z"/>
  <path d="M432 173 c-4.6 -4.6 -1 -10 6.7 -10 4.5 0 5.7 -0.9 4.7 -3.5 -0.6 -1.3 -1.8 -1.6 -6.2 -1.3 -3.8 0.2 -5.7 -0.1 -5.9 -0.9 -0.6 -1.7 3.9 -3.3 9.2 -3.3 6.5 0 8.5 3 8.5 12.7 0 7.8 -1.3 9.9 -4.6 7.3 -1.1 -1 -1.8 -1 -2.6 -0.2 -1.9 1.9 -7.6 1.4 -9.8 -0.8z m11 -4 c1.6 -3 0.3 -4.2 -3.3 -3.4 -3.5 0.7 -4.8 2 -4 4.1 0.8 2.1 6.1 1.6 7.3 -0.7z"/>
  <path d="M341.9 137.5 c-1.5 -0.8 -3.2 -2.9 -3.8 -4.6 -0.7 -2.2 -1.1 -17.9 -1.1 -48.1 0 -47.8 0.2 -50.2 4.8 -52.7 1.4 -0.7 11.8 -1.1 29.7 -1.1 27.6 0 27.6 0 30 2.5 2.5 2.4 2.5 2.4 2.5 0 0 -2.5 0 -2.5 13.6 -2.5 7.6 0 14.4 0.5 15.5 1.1 1.1 0.5 2.8 2.4 3.9 4.1 1.7 2.8 1.8 2.9 2.5 0.9 0.3 -1.1 1.8 -3 3.2 -4.1 2.3 -1.8 4 -2 16.4 -2 l13.9 0 0 54 0 54 -12.9 0 c-7.1 0 -14.1 -0.4 -15.5 -1 -1.4 -0.5 -3.5 -2.4 -4.5 -4.1 -1.8 -3 -1.9 -3 -2.6 -0.9 -0.4 1.2 -2.1 3 -3.8 4.1 -2.7 1.6 -5.1 1.9 -16.4 1.9 -13.3 0 -13.3 0 -13.3 -2.9 0 -2.9 0 -2.9 -2.9 0 -2.9 2.9 -2.9 2.9 -29.8 2.9 -21.3 -0.1 -27.3 -0.4 -29.4 -1.5z m59.1 -13.5 l0 -11 -15.3 0 c-10.6 0 -15.7 -0.4 -16.5 -1.2 -0.9 -0.9 -1.2 -8.4 -1.2 -27.5 0 -23.5 0.2 -26.4 1.6 -27 0.9 -0.3 2.4 -0.2 3.3 0.4 1.4 0.9 1.6 4.2 1.9 24.7 l0.2 23.6 13 0 13 0 0 -33.5 c0 -32.2 -0.1 -33.6 -2 -35.5 -1.9 -1.9 -3.3 -2 -28 -2 -24.7 0 -26.1 0.1 -28 2 -1.9 1.9 -2 3.3 -2 48 0 44.7 0.1 46.1 2 48 1.9 1.9 3.3 2 30 2 l28 0 0 -11z m31.1 9.1 c2.3 -1.9 2.4 -2.4 2.9 -21.8 0.5 -19.8 0.5 -19.8 3.5 -19.8 3 0 3 0 3.5 19.8 0.6 24.8 -0.1 23.7 16.1 23.7 l10.9 0 0 -50 0 -50 -11.3 0 c-16 0 -15.1 -1.5 -15.7 25.9 -0.5 21.6 -0.5 21.6 -3.5 21.6 -3 0 -3 0 -3.5 -21.6 -0.6 -27.4 0.3 -25.9 -15.7 -25.9 l-11.3 0 0 50 0 50 10.9 0 c9.2 0 11.2 -0.3 13.2 -1.9z"/>
  <path d="M164.7 137.3 c-0.4 -0.3 -0.7 -6.4 -0.7 -13.5 l0 -12.8 85.8 0.2 85.7 0.3 0 13 0 13 -85.1 0.3 c-46.8 0.1 -85.4 -0.1 -85.7 -0.5z"/>
  <path d="M48 135.5 c-1.9 -0.9 -4.8 -2.8 -6.3 -4.3 -3.2 -3.1 -35.1 -67.1 -36.9 -74 -2.9 -11.7 7.8 -24.2 20.6 -24.2 4.5 0 13 4.3 15.5 7.9 1.2 1.7 4.9 8.7 8.1 15.6 3.3 6.9 6.3 12.5 6.8 12.5 0.5 0 3.5 -5.6 6.7 -12.5 7.1 -15.3 10.7 -19.7 17.6 -22 6 -2 11.4 -1.5 17.2 1.8 4.3 2.4 7.6 7.5 15 23 2.5 5.3 5 9.7 5.4 9.7 0.5 0 3.7 -6 7.2 -13.4 6.8 -14.6 10.1 -18.6 17 -21.1 7.4 -2.6 13.9 -1.4 19.7 3.7 5.5 4.8 7.7 10.1 7.2 16.7 -0.4 4.8 -3.1 10.8 -17.9 40.6 -17.1 34.4 -17.5 35 -22.1 37.9 -9.2 5.6 -19.6 4.2 -26.1 -3.5 -1.8 -2.1 -6 -9.5 -9.3 -16.3 -3.2 -6.9 -6.2 -12.4 -6.6 -12.3 -0.5 0.1 -4.1 6.7 -8 14.7 -6.1 12.2 -8 14.9 -11.4 17.3 -5.2 3.6 -14.1 4.6 -19.4 2.2z m77.7 -4.4 c1.7 -1.1 4.1 -3.2 5.2 -4.8 1.2 -1.5 9.3 -17.4 18.1 -35.2 14.4 -29.3 16 -33 16 -37.6 0 -6 -2.6 -10.6 -8 -14.3 -2.9 -2 -4.5 -2.3 -9.2 -2 -9.8 0.7 -10.4 1.5 -28.1 37.2 -16.4 33.2 -17.3 34.4 -22.5 32.5 -1.3 -0.5 -2.5 -0.9 -2.8 -0.9 -0.2 0 2 4.9 5.1 10.9 6.7 13.4 9.5 15.9 18.5 16 2.8 0.1 5.7 -0.6 7.7 -1.8z m-86.5 -29.3 c0.9 -0.7 4.5 -7.1 8.1 -14.2 l6.4 -13 -7 -14.5 c-9.6 -20.1 -13.3 -23.7 -23.3 -22.9 -9.5 0.8 -16.5 9.4 -15.1 18.4 0.7 4.4 20.2 44.4 22.4 46.2 0.9 0.6 2.9 1.2 4.3 1.2 1.4 0 3.3 -0.6 4.2 -1.2z"/>
  <path d="M172.7 107.4 c-0.4 -0.4 -0.7 -11.5 -0.7 -24.6 l0 -23.8 14.5 0 14.5 0 -0.2 24.3 -0.3 24.2 -13.6 0.3 c-7.4 0.1 -13.8 -0.1 -14.2 -0.4z"/>
  <path d="M212.5 107 c-6.5 -2 -6.5 -1.9 -6.5 -39.7 l0 -34.3 14.5 0 c14.5 0 14.5 0 14.5 4.5 0 4.5 0 4.5 17 4.5 l17 0 0 12.5 0 12.5 -17 0 -17 0 0 8 c0 7.9 0 8 2.5 8 2.4 0 2.5 -0.3 2.5 -6 0 -6 0 -6 14.5 -6 l14.5 0 0 15 c0 15 0 15 -2.9 18.2 -2.9 3.3 -2.9 3.3 -26.8 3.5 -13.1 0.1 -25.1 -0.2 -26.8 -0.7z"/>
  <path d="M278.3 106.6 c-1.7 -0.8 -3.6 -2.3 -4.2 -3.5 -0.7 -1.3 -1.1 -12.7 -1.1 -33 0 -31 0 -31 2.4 -33.8 2.4 -2.8 2.4 -2.8 31.3 -2.8 l28.8 0 0.3 10.8 0.3 10.7 -15.4 0 c-11.7 0 -15.8 0.3 -17.3 1.4 -2.9 2.2 -0.9 2.5 16.6 2.8 l15.5 0.3 0.3 10.8 0.3 10.7 -15.9 0 c-12.9 0 -16.2 0.3 -17.2 1.5 -1.8 2.2 -0.4 2.4 17 2.7 l15.5 0.3 0 11 0 11 -27 0.2 c-21.2 0.2 -27.7 -0.1 -30.2 -1.1z"/>
  <path d="M172 44 l0 -11 14.5 0 14.5 0 0 11 0 11 -14.5 0 -14.5 0 0 -11z"/>
  <path d="M479.2 38.7 c-7.3 -4.1 -7.5 -15.4 -0.3 -19.1 9.3 -4.9 19.3 3.2 16.1 13 -2.1 6.1 -10.1 9.2 -15.8 6.1z m11.9 -3.6 c3.8 -3.9 3.9 -8 0 -12.3 -2.2 -2.5 -3.6 -3.2 -6.6 -3.2 -4.7 0 -9.5 4.8 -9.5 9.5 0 4.5 4.7 8.9 9.5 8.9 2.7 0 4.4 -0.8 6.6 -2.9z"/>
  <path d="M480 29.5 c0 -6.2 1.3 -7.5 5.9 -5.9 2.3 0.9 2.6 1.5 2.7 6.2 0.1 5.5 -0.8 6.5 -2.8 3.2 -0.7 -1.1 -1.6 -2 -1.9 -2 -0.4 0 -0.9 0.9 -1.2 2 -1.1 4.1 -2.7 2 -2.7 -3.5z m5.8 -2.3 c0.2 -0.7 -0.3 -1.2 -1.2 -1.2 -0.9 0 -1.6 0.7 -1.6 1.6 0 1.7 2.2 1.4 2.8 -0.4z"/>
 </g>
</svg>